<?xml version="1.0" encoding="utf-8"?>
<!-- Generator: Adobe Illustrator 27.5.0, SVG Export Plug-In . SVG Version: 6.00 Build 0)  -->
<svg version="1.1" xmlns="http://www.w3.org/2000/svg" xmlns:xlink="http://www.w3.org/1999/xlink" x="0px" y="0px"
	 viewBox="0 0 2200 2200" style="enable-background:new 0 0 2200 2200;" xml:space="preserve">
<g id="background">
	<rect y="0" style="fill:#FFFFFF;" width="2200" height="2200"/>
</g>
<g id="Objects">
	<g>
		<path d="M1780.115,1467.203h-230.472c-13.808,0-25-11.193-25-25s11.192-25,25-25h230.472c78.06,0,141.565-63.507,141.565-141.566
			c0-34.473-12.53-67.686-35.283-93.52c-22.559-25.614-53.499-42.22-87.12-46.759c-11.877-1.604-20.945-11.41-21.616-23.376
			c-6.843-122.08-108.09-217.708-230.5-217.708c-7.284,0-14.604,0.341-21.755,1.014c-13.378,1.263-25.402-8.32-27.134-21.675
			c-11.239-86.651-53.657-166.441-119.442-224.673c-66.348-58.73-151.74-91.074-240.445-91.074
			c-91.718,0-179.265,34.296-246.516,96.571c-66.887,61.938-107.79,145.88-115.176,236.364c-0.68,8.327-5.475,15.765-12.779,19.821
			c-7.304,4.058-16.152,4.196-23.581,0.372c-21.551-11.095-44.866-16.72-69.3-16.72c-83.623,0-151.656,68.033-151.656,151.656
			c0,1.359,0.016,2.71,0.05,4.052c0.193,7.688-3.162,15.037-9.098,19.926s-13.792,6.774-21.3,5.112
			c-12.257-2.714-24.898-4.09-37.574-4.09c-95.467,0-173.136,77.668-173.136,173.136s77.669,173.137,173.136,173.137h261.511
			c13.807,0,25,11.193,25,25s-11.193,25-25,25H451.456c-59.601,0-115.635-23.211-157.78-65.355
			c-42.146-42.146-65.356-98.181-65.356-157.781s23.21-115.635,65.356-157.78c42.146-42.146,98.18-65.356,157.78-65.356
			c6.467,0,12.93,0.279,19.361,0.834c11.979-99.841,97.201-177.491,200.217-177.491c20.322,0,40.589,3.103,59.919,9.094
			c14.804-90.135,59.141-172.831,126.944-235.618c76.522-70.86,176.135-109.884,280.488-109.884
			c100.926,0,198.088,36.805,273.586,103.635c69.007,61.083,115.415,143.053,132.256,232.788c0.979-0.01,1.957-0.015,2.935-0.015
			c142.294,0,261.085,106.25,278.638,245.291c37.792,9.262,72.094,29.952,98.121,59.505c30.799,34.971,47.761,79.919,47.761,126.566
			C1971.681,1381.267,1885.745,1467.203,1780.115,1467.203z"/>
		<path style="fill:#EA3232;" d="M1074.477,1344.489h-56.611v174.604c0,13.831-11.212,25.043-25.043,25.043H861.07
			c-13.831,0-25.043-11.212-25.043-25.043v-174.604h-56.61c-26.321,0-41.046-30.34-24.755-51.013l147.53-187.199
			c12.622-16.003,36.889-16.003,49.511,0l147.53,187.199C1115.522,1314.149,1100.797,1344.489,1074.477,1344.489z"/>
		<path style="fill:#EA3232;" d="M1420.584,1416.92h-56.61v-174.604c0-13.831-11.212-25.043-25.043-25.043h-131.753
			c-13.831,0-25.043,11.212-25.043,25.043v174.604h-56.61c-26.321,0-41.046,30.34-24.755,51.013l147.53,187.199
			c12.622,16.003,36.889,16.003,49.511,0l147.53-187.199C1461.629,1447.26,1446.904,1416.92,1420.584,1416.92z"/>
	</g>
</g>
</svg>
